<svg width="25" height="24" viewBox="0 0 25 24" fill="none" xmlns="http://www.w3.org/2000/svg">
<g clip-path="url(#clip0_3344_63)">
<path fill-rule="evenodd" clip-rule="evenodd" d="M7 8.25V3.75C7 3.33579 7.33579 3 7.75 3C8.16421 3 8.5 3.33579 8.5 3.75V8.25C8.5 8.66421 8.16421 9 7.75 9C7.33579 9 7 8.66421 7 8.25ZM20.5 3.75V21C20.5 21.4142 20.1642 21.75 19.75 21.75C19.3358 21.75 19 21.4142 19 21V16.5H14.5C14.0858 16.5 13.75 16.1642 13.75 15.75C13.7848 13.9534 14.0117 12.1658 14.4269 10.4175C15.3438 6.62156 17.0819 4.07719 19.4547 3.06094C19.6863 2.9617 19.9524 2.98546 20.1628 3.12416C20.3732 3.26287 20.4999 3.49798 20.5 3.75ZM19 5.05312C15.9841 7.35656 15.3934 12.9675 15.2781 15H19V5.05312ZM11.4897 3.62719C11.4497 3.35915 11.2682 3.13353 11.015 3.03701C10.7618 2.94049 10.4762 2.98809 10.2679 3.16152C10.0597 3.33495 9.9612 3.60723 10.0103 3.87375L10.75 8.30906C10.75 9.96592 9.40685 11.3091 7.75 11.3091C6.09315 11.3091 4.75 9.96592 4.75 8.30906L5.48875 3.87375C5.53786 3.60723 5.43938 3.33495 5.23114 3.16152C5.02289 2.98809 4.73729 2.94049 4.48406 3.03701C4.23082 3.13353 4.04936 3.35915 4.00938 3.62719L3.25938 8.12719C3.25296 8.16781 3.24982 8.20888 3.25 8.25C3.25309 10.4446 4.83658 12.3178 7 12.6862V21C7 21.4142 7.33579 21.75 7.75 21.75C8.16421 21.75 8.5 21.4142 8.5 21V12.6862C10.6634 12.3178 12.2469 10.4446 12.25 8.25C12.2499 8.20885 12.2464 8.16778 12.2397 8.12719L11.4897 3.62719Z" fill="#A6B5A1"/>
</g>
<defs>
<clipPath id="clip0_3344_63">
<rect width="24" height="24" fill="white" transform="translate(0.25)"/>
</clipPath>
</defs>
</svg>
